<svg xmlns="http://www.w3.org/2000/svg" xmlns:xlink="http://www.w3.org/1999/xlink" width="500" zoomAndPan="magnify" viewBox="0 0 375 374.999991" height="500" preserveAspectRatio="xMidYMid meet" version="1.0"><defs><g/></defs><rect x="-37.5" width="450" fill="#ffffff" y="-37.499999" height="449.999989" fill-opacity="1"/><rect x="-37.5" width="450" fill="#8caad1" y="-37.499999" height="449.999989" fill-opacity="1"/><g fill="#ffffff" fill-opacity="1"><g transform="translate(100.463926, 170.20616)"><g><path d="M 6.839844 0 L 9.878906 0 L 16.335938 -26.597656 L 15.386719 -26.597656 L 9.5 -2.28125 L 3.609375 -26.597656 L 0.378906 -26.597656 Z M 6.839844 0 "/></g></g></g><g fill="#ffffff" fill-opacity="1"><g transform="translate(117.180516, 170.20616)"><g><path d="M 14.4375 -9.878906 C 14.4375 -15.957031 11.019531 -19.378906 7.980469 -19.378906 C 4.9375 -19.378906 1.519531 -15.957031 1.519531 -9.5 C 1.519531 -3.039062 4.9375 0.378906 8.167969 0.378906 C 11.019531 0.378906 13.296875 -1.898438 13.679688 -4.558594 L 11.207031 -6.839844 C 11.207031 -2.28125 9.308594 -0.378906 8.167969 -0.378906 C 6.839844 -0.378906 4.9375 -2.46875 4.9375 -9.5 L 4.9375 -9.878906 Z M 7.980469 -18.617188 C 9.082031 -18.617188 10.867188 -16.871094 10.980469 -10.636719 L 4.9375 -10.636719 C 5.128906 -16.90625 6.878906 -18.617188 7.980469 -18.617188 Z M 7.980469 -18.617188 "/></g></g></g><g fill="#ffffff" fill-opacity="1"><g transform="translate(133.137252, 170.20616)"><g><path d="M 11.019531 -18.996094 C 11.019531 -18.996094 10.257812 -19.378906 9.117188 -19.378906 C 6.839844 -19.378906 5.320312 -16.71875 5.320312 -16.71875 L 5.320312 -18.996094 L 2.28125 -18.996094 L 2.28125 0 L 5.320312 0 L 5.320312 -15.199219 C 5.320312 -15.199219 6.839844 -17.859375 8.359375 -17.859375 C 9.878906 -17.859375 11.019531 -15.578125 11.019531 -15.578125 Z M 11.019531 -18.996094 "/></g></g></g><g fill="#ffffff" fill-opacity="1"><g transform="translate(144.534926, 170.20616)"><g><path d="M 8.167969 -18.617188 C 9.5 -18.617188 11.398438 -16.71875 11.398438 -9.5 C 11.398438 -2.28125 9.5 -0.378906 8.167969 -0.378906 C 6.839844 -0.378906 4.9375 -2.28125 4.9375 -9.5 C 4.9375 -16.71875 6.839844 -18.617188 8.167969 -18.617188 Z M 8.167969 0.378906 C 11.398438 0.378906 14.816406 -3.039062 14.816406 -9.5 C 14.816406 -15.957031 11.398438 -19.378906 8.167969 -19.378906 C 4.9375 -19.378906 1.519531 -15.957031 1.519531 -9.5 C 1.519531 -3.039062 4.9375 0.378906 8.167969 0.378906 Z M 12.539062 -22.417969 L 9.117188 -26.597656 L 7.21875 -26.597656 L 3.800781 -22.417969 L 4.558594 -22.417969 L 8.167969 -24.695312 L 11.777344 -22.417969 Z M 12.539062 -22.417969 "/></g></g></g><g fill="#ffffff" fill-opacity="1"><g transform="translate(160.871583, 170.20616)"><g><path d="M 14.4375 -14.816406 C 14.4375 -17.476562 12.539062 -19.378906 9.5 -19.378906 C 6.839844 -19.378906 5.320312 -16.71875 5.320312 -16.71875 L 5.320312 -18.996094 L 2.28125 -18.996094 L 2.28125 0 L 5.320312 0 L 5.320312 -15.578125 C 5.320312 -15.578125 6.839844 -18.238281 8.738281 -18.238281 C 10.257812 -18.238281 11.398438 -17.097656 11.398438 -14.816406 L 11.398438 0 L 14.4375 0 Z M 14.4375 -14.816406 "/></g></g></g><g fill="#ffffff" fill-opacity="1"><g transform="translate(177.588173, 170.20616)"><g><path d="M 5.128906 -18.996094 L 2.089844 -18.996094 L 2.089844 0 L 5.128906 0 Z M 3.609375 -26.597656 C 2.46875 -26.597656 1.710938 -25.835938 1.710938 -24.695312 C 1.710938 -23.558594 2.46875 -22.796875 3.609375 -22.796875 C 4.75 -22.796875 5.507812 -23.558594 5.507812 -24.695312 C 5.507812 -25.835938 4.75 -26.597656 3.609375 -26.597656 Z M 3.609375 -26.597656 "/></g></g></g><g fill="#ffffff" fill-opacity="1"><g transform="translate(184.806694, 170.20616)"><g><path d="M 8.167969 -19.378906 C 4.9375 -19.378906 1.519531 -15.957031 1.519531 -9.5 C 1.519531 -3.039062 4.9375 0.378906 8.167969 0.378906 C 11.019531 0.378906 13.296875 -1.898438 13.679688 -4.558594 L 11.207031 -6.839844 C 11.207031 -2.28125 9.308594 -0.378906 8.167969 -0.378906 C 6.839844 -0.378906 4.9375 -2.46875 4.9375 -9.5 C 4.9375 -16.527344 6.839844 -18.617188 8.167969 -18.617188 C 9.308594 -18.617188 11.207031 -16.71875 11.207031 -13.296875 L 13.679688 -15.578125 C 13.296875 -17.097656 11.019531 -19.378906 8.167969 -19.378906 Z M 8.167969 -19.378906 "/></g></g></g><g fill="#ffffff" fill-opacity="1"><g transform="translate(199.623667, 170.20616)"><g><path d="M 12.917969 -14.816406 C 12.917969 -17.476562 11.019531 -19.378906 7.636719 -19.378906 C 5.320312 -19.378906 3.417969 -18.238281 3.417969 -18.238281 L 3.417969 -14.4375 C 3.417969 -14.4375 5.320312 -18.617188 7.597656 -18.617188 C 8.738281 -18.617188 9.878906 -17.476562 9.878906 -14.816406 L 9.878906 -11.398438 C 9.878906 -11.398438 8.738281 -11.777344 7.980469 -11.777344 C 3.417969 -11.777344 1.140625 -9.5 1.140625 -5.320312 C 1.140625 -1.898438 3.417969 0.378906 6.078125 0.378906 C 8.359375 0.378906 9.878906 -2.28125 9.878906 -2.28125 L 9.878906 0 L 12.917969 0 Z M 7.980469 -11.019531 C 8.738281 -11.019531 9.878906 -10.636719 9.878906 -10.636719 L 9.878906 -3.417969 C 9.878906 -3.417969 8.359375 -0.761719 6.839844 -0.761719 C 5.507812 -0.761719 4.179688 -2.089844 4.179688 -5.320312 C 4.179688 -9.117188 6.078125 -11.019531 7.980469 -11.019531 Z M 7.980469 -11.019531 "/></g></g></g><g fill="#ffffff" fill-opacity="1"><g transform="translate(195.363361, 231.000335)"><g><path d="M 80.359375 -44.1875 C 80.273438 -43.96875 80.191406 -43.75 80.109375 -43.53125 C 79.253906 -41.300781 78.332031 -39.113281 77.34375 -36.96875 C 72.238281 -26.363281 66.757812 -16.101562 60.90625 -6.1875 C 59 -2.988281 57.050781 0.148438 55.0625 3.234375 C 53.070312 6.328125 51.066406 9.40625 49.046875 12.46875 C 48.578125 13.1875 48.097656 13.90625 47.609375 14.625 C 47.585938 14.6875 47.5625 14.734375 47.53125 14.765625 C 47.425781 14.984375 47.300781 15.164062 47.15625 15.3125 C 47.007812 15.457031 46.8125 15.53125 46.5625 15.53125 C 46.457031 15.53125 46.34375 15.5 46.21875 15.4375 C 46.09375 15.382812 45.992188 15.316406 45.921875 15.234375 C 45.859375 15.160156 45.816406 15.039062 45.796875 14.875 C 45.773438 14.707031 45.785156 14.578125 45.828125 14.484375 C 46.160156 13.773438 46.53125 13.101562 46.9375 12.46875 C 47.832031 10.988281 48.738281 9.507812 49.65625 8.03125 C 51.375 5.289062 53.066406 2.539062 54.734375 -0.21875 C 58.421875 -6.375 61.941406 -12.65625 65.296875 -19.0625 C 68.648438 -25.46875 71.925781 -31.941406 75.125 -38.484375 C 76.40625 -41.015625 77.460938 -43.71875 78.296875 -46.59375 C 78.460938 -47.09375 78.59375 -47.613281 78.6875 -48.15625 C 78.78125 -48.695312 78.828125 -49.253906 78.828125 -49.828125 C 78.742188 -51.054688 78.21875 -51.59375 77.25 -51.4375 C 76.394531 -51.257812 75.585938 -50.988281 74.828125 -50.625 C 73.035156 -49.757812 71.269531 -48.800781 69.53125 -47.75 C 60.15625 -42.0625 51.613281 -35 43.90625 -26.5625 C 43.800781 -26.4375 43.679688 -26.304688 43.546875 -26.171875 C 40.878906 -23.273438 38.238281 -20.351562 35.625 -17.40625 C 33.007812 -14.46875 30.46875 -11.441406 28 -8.328125 C 27.488281 -7.679688 26.953125 -7.078125 26.390625 -6.515625 C 25.785156 -5.890625 25.070312 -5.644531 24.25 -5.78125 C 23.894531 -5.832031 23.601562 -6.003906 23.375 -6.296875 C 23.144531 -6.597656 23.054688 -6.953125 23.109375 -7.359375 C 23.273438 -8.460938 23.519531 -9.523438 23.84375 -10.546875 C 24.832031 -13.796875 25.878906 -17 26.984375 -20.15625 C 27.148438 -20.644531 27.296875 -21.113281 27.421875 -21.5625 C 27.722656 -22.75 28.140625 -23.84375 28.671875 -24.84375 C 28.671875 -24.875 28.660156 -24.890625 28.640625 -24.890625 C 28.503906 -24.960938 28.367188 -25.019531 28.234375 -25.0625 C 28.097656 -25.101562 27.960938 -25.054688 27.828125 -24.921875 C 27.335938 -24.378906 26.867188 -23.816406 26.421875 -23.234375 C 22.710938 -18.203125 19.035156 -13.128906 15.390625 -8.015625 C 11.753906 -2.898438 8.207031 2.296875 4.75 7.578125 C 4.445312 8.085938 4.113281 8.503906 3.75 8.828125 C 3.394531 9.148438 2.921875 9.257812 2.328125 9.15625 C 2.054688 9.082031 1.847656 8.914062 1.703125 8.65625 C 1.554688 8.40625 1.523438 8.15625 1.609375 7.90625 C 1.929688 7.1875 2.28125 6.503906 2.65625 5.859375 C 3.726562 4.003906 4.789062 2.148438 5.84375 0.296875 C 7.957031 -3.378906 10.050781 -7.070312 12.125 -10.78125 C 15.34375 -16.46875 18.21875 -22.457031 20.75 -28.75 C 21.738281 -31.164062 22.539062 -33.703125 23.15625 -36.359375 C 23.5 -37.773438 23.648438 -39.253906 23.609375 -40.796875 C 23.441406 -43.265625 22.617188 -45.03125 21.140625 -46.09375 C 19.671875 -47.15625 17.734375 -47.65625 15.328125 -47.59375 C 12.921875 -47.539062 10.253906 -47.050781 7.328125 -46.125 C 4.398438 -45.195312 1.398438 -43.96875 -1.671875 -42.4375 C -4.753906 -40.914062 -7.722656 -39.234375 -10.578125 -37.390625 C -13.441406 -35.546875 -15.984375 -33.675781 -18.203125 -31.78125 C -20.429688 -29.894531 -22.171875 -28.117188 -23.421875 -26.453125 C -24.722656 -24.628906 -25.832031 -22.617188 -26.75 -20.421875 C -27.21875 -19.367188 -27.488281 -18.226562 -27.5625 -17 C -27.582031 -16.75 -27.703125 -16.5625 -27.921875 -16.4375 C -28.140625 -16.320312 -28.382812 -16.285156 -28.65625 -16.328125 C -29.082031 -16.460938 -29.351562 -16.800781 -29.46875 -17.34375 C -29.539062 -18.050781 -29.484375 -18.695312 -29.296875 -19.28125 C -28.890625 -20.757812 -28.351562 -22.15625 -27.6875 -23.46875 C -26.457031 -25.78125 -24.582031 -28.140625 -22.0625 -30.546875 C -19.550781 -32.953125 -16.625 -35.253906 -13.28125 -37.453125 C -9.9375 -39.660156 -6.441406 -41.625 -2.796875 -43.34375 C 0.835938 -45.070312 4.394531 -46.414062 7.875 -47.375 C 11.351562 -48.332031 14.484375 -48.757812 17.265625 -48.65625 C 20.054688 -48.5625 22.257812 -47.796875 23.875 -46.359375 C 25.488281 -44.929688 26.269531 -42.675781 26.21875 -39.59375 C 26.132812 -37.601562 25.820312 -35.707031 25.28125 -33.90625 C 24.5 -31.269531 23.597656 -28.722656 22.578125 -26.265625 C 21.566406 -23.804688 20.488281 -21.398438 19.34375 -19.046875 C 18.988281 -18.304688 18.910156 -17.945312 19.109375 -17.96875 C 19.304688 -17.988281 19.609375 -18.269531 20.015625 -18.8125 C 21.460938 -20.738281 22.914062 -22.640625 24.375 -24.515625 C 25.363281 -25.773438 26.367188 -27.007812 27.390625 -28.21875 C 27.523438 -28.382812 27.660156 -28.550781 27.796875 -28.71875 C 28.378906 -29.4375 29.085938 -29.914062 29.921875 -30.15625 C 30.546875 -30.289062 31.070312 -30.148438 31.5 -29.734375 C 31.925781 -29.316406 32.070312 -28.695312 31.9375 -27.875 C 31.90625 -27.78125 31.878906 -27.691406 31.859375 -27.609375 C 31.640625 -26.535156 31.382812 -25.492188 31.09375 -24.484375 C 30.3125 -22.003906 29.503906 -19.546875 28.671875 -17.109375 C 28.265625 -15.847656 27.863281 -14.570312 27.46875 -13.28125 C 27.382812 -13.09375 27.257812 -12.753906 27.09375 -12.265625 C 26.9375 -11.835938 26.785156 -11.414062 26.640625 -11 C 26.492188 -10.582031 26.378906 -10.265625 26.296875 -10.046875 C 26.398438 -10.140625 27.394531 -11.257812 29.28125 -13.40625 C 31.832031 -16.332031 34.851562 -19.757812 38.34375 -23.6875 C 41.832031 -27.625 44.570312 -30.628906 46.5625 -32.703125 C 50.238281 -36.398438 54.109375 -39.765625 58.171875 -42.796875 C 62.242188 -45.828125 66.46875 -48.570312 70.84375 -51.03125 C 71.914062 -51.59375 73.019531 -52.097656 74.15625 -52.546875 C 74.40625 -52.628906 74.644531 -52.726562 74.875 -52.84375 C 75.945312 -53.269531 77.085938 -53.429688 78.296875 -53.328125 C 80.617188 -53.097656 81.679688 -51.628906 81.484375 -48.921875 C 81.347656 -47.242188 80.972656 -45.664062 80.359375 -44.1875 Z M 28.546875 -25 C 28.609375 -24.945312 28.648438 -24.910156 28.671875 -24.890625 C 28.671875 -24.890625 28.671875 -24.875 28.671875 -24.84375 C 28.703125 -24.84375 28.71875 -24.859375 28.71875 -24.890625 C 28.664062 -24.910156 28.609375 -24.945312 28.546875 -25 Z M 28.546875 -25 "/></g></g></g><g fill="#ffffff" fill-opacity="1"><g transform="translate(264.354247, 231.000335)"><g><path d="M 13.28125 -9.328125 C 13.570312 -9.160156 13.59375 -8.757812 13.34375 -8.125 C 12.988281 -7.664062 12.609375 -7.234375 12.203125 -6.828125 C 11.804688 -6.421875 11.367188 -6.0625 10.890625 -5.75 C 10.859375 -5.75 10.84375 -5.738281 10.84375 -5.71875 C 10.519531 -5.5 10.179688 -5.304688 9.828125 -5.140625 C 6.910156 -4.097656 5.421875 -4.71875 5.359375 -7 C 4.179688 -5.96875 3.390625 -5.335938 2.984375 -5.109375 C 2.015625 -4.535156 0.972656 -4.28125 -0.140625 -4.34375 C -0.972656 -4.382812 -1.535156 -4.632812 -1.828125 -5.09375 C -2.128906 -5.550781 -2.109375 -6.171875 -1.765625 -6.953125 C -1.222656 -8.191406 -0.457031 -9.289062 0.53125 -10.25 C 1.6875 -11.320312 2.972656 -12.179688 4.390625 -12.828125 C 5.148438 -13.210938 5.945312 -13.363281 6.78125 -13.28125 C 7.601562 -13.226562 8.101562 -12.753906 8.28125 -11.859375 C 8.351562 -11.597656 8.285156 -11.363281 8.078125 -11.15625 C 7.804688 -10.90625 7.492188 -10.847656 7.140625 -10.984375 C 7.117188 -10.984375 7.082031 -10.988281 7.03125 -11 C 6.988281 -11.007812 6.957031 -11.03125 6.9375 -11.0625 C 6.582031 -11.550781 6.222656 -11.753906 5.859375 -11.671875 C 5.503906 -11.585938 5.125 -11.425781 4.71875 -11.1875 C 2.84375 -10.09375 1.445312 -8.5625 0.53125 -6.59375 C 0.476562 -6.507812 0.445312 -6.414062 0.4375 -6.3125 C 0.425781 -6.207031 0.457031 -6.125 0.53125 -6.0625 C 0.75 -5.988281 0.992188 -6.003906 1.265625 -6.109375 C 1.535156 -6.210938 1.800781 -6.363281 2.0625 -6.5625 C 2.332031 -6.757812 2.5625 -6.925781 2.75 -7.0625 C 2.769531 -7.101562 2.78125 -7.125 2.78125 -7.125 C 3.675781 -7.863281 4.550781 -8.625 5.40625 -9.40625 C 5.78125 -9.8125 6.25 -10.039062 6.8125 -10.09375 C 7.613281 -10.09375 7.945312 -9.734375 7.8125 -9.015625 C 7.738281 -8.742188 7.660156 -8.472656 7.578125 -8.203125 C 7.265625 -7.046875 7.253906 -6.363281 7.546875 -6.15625 C 7.835938 -5.957031 8.285156 -5.957031 8.890625 -6.15625 C 9.492188 -6.363281 10.097656 -6.75 10.703125 -7.3125 C 11.304688 -7.882812 11.816406 -8.40625 12.234375 -8.875 C 12.648438 -9.34375 13 -9.492188 13.28125 -9.328125 Z M 13.28125 -9.328125 "/></g></g></g><g fill="#ffffff" fill-opacity="1"><g transform="translate(276.490351, 231.000335)"><g><path d="M 14.5 -9.140625 C 14.695312 -8.890625 14.453125 -8.441406 13.765625 -7.796875 C 13.085938 -7.148438 12.363281 -6.609375 11.59375 -6.171875 C 10.820312 -5.734375 9.929688 -5.296875 8.921875 -4.859375 C 8.242188 -4.554688 7.523438 -4.453125 6.765625 -4.546875 C 6.015625 -4.648438 5.640625 -5.109375 5.640625 -5.921875 C 5.640625 -6.742188 5.828125 -7.5625 6.203125 -8.375 C 6.585938 -9.195312 6.671875 -9.617188 6.453125 -9.640625 C 6.242188 -9.671875 5.800781 -9.472656 5.125 -9.046875 C 3.382812 -7.898438 1.757812 -6.585938 0.25 -5.109375 C -0.144531 -4.617188 -0.65625 -4.347656 -1.28125 -4.296875 C -1.601562 -4.296875 -1.847656 -4.394531 -2.015625 -4.59375 C -2.191406 -4.800781 -2.21875 -5.019531 -2.09375 -5.25 C -1.007812 -7.238281 0.078125 -9.207031 1.171875 -11.15625 C 1.410156 -11.550781 1.773438 -11.800781 2.265625 -11.90625 C 2.472656 -11.9375 2.664062 -11.867188 2.84375 -11.703125 C 3.019531 -11.546875 3.109375 -11.363281 3.109375 -11.15625 C 3.085938 -10.957031 3.007812 -10.722656 2.875 -10.453125 C 2.8125 -10.296875 2.753906 -10.144531 2.703125 -10 C 2.648438 -9.851562 2.628906 -9.726562 2.640625 -9.625 C 2.660156 -9.53125 2.738281 -9.503906 2.875 -9.546875 C 3.0625 -9.640625 3.242188 -9.738281 3.421875 -9.84375 C 3.890625 -10.113281 4.335938 -10.375 4.765625 -10.625 C 5.140625 -10.84375 5.535156 -11.035156 5.953125 -11.203125 C 6.367188 -11.378906 6.800781 -11.492188 7.25 -11.546875 C 7.976562 -11.597656 8.492188 -11.429688 8.796875 -11.046875 C 9.109375 -10.671875 9.148438 -10.148438 8.921875 -9.484375 C 8.671875 -8.867188 8.410156 -8.265625 8.140625 -7.671875 C 7.816406 -7.109375 7.765625 -6.679688 7.984375 -6.390625 C 8.203125 -6.097656 9.222656 -6.429688 11.046875 -7.390625 L 12.421875 -8.203125 C 13.710938 -9.035156 14.40625 -9.347656 14.5 -9.140625 Z M 14.5 -9.140625 "/></g></g></g><g fill="#ffffff" fill-opacity="1"><g transform="translate(289.907792, 231.000335)"><g><path d="M 16.171875 -9.8125 C 16.265625 -9.832031 16.375 -9.832031 16.5 -9.8125 C 16.625 -9.789062 16.710938 -9.738281 16.765625 -9.65625 C 16.835938 -9.519531 16.832031 -9.382812 16.75 -9.25 C 16.675781 -9.113281 16.5625 -9.007812 16.40625 -8.9375 C 15.3125 -8.394531 14.207031 -7.835938 13.09375 -7.265625 C 11.789062 -6.597656 10.476562 -5.925781 9.15625 -5.25 C 8.957031 -5.175781 8.769531 -5.085938 8.59375 -4.984375 C 8.289062 -4.828125 7.992188 -4.679688 7.703125 -4.546875 C 7.035156 -4.210938 6.59375 -3.695312 6.375 -3 C 5.789062 -1.34375 5.171875 0.300781 4.515625 1.9375 C 3.691406 4.125 2.65625 6.207031 1.40625 8.1875 C 0.707031 9.320312 -0.128906 10.328125 -1.109375 11.203125 C -2.296875 12.316406 -3.65625 13.019531 -5.1875 13.3125 C -7.707031 13.820312 -10.140625 13.65625 -12.484375 12.8125 C -13.453125 12.476562 -14.285156 11.929688 -14.984375 11.171875 C -15.921875 10.160156 -15.960938 9.070312 -15.109375 7.90625 C -14.722656 7.414062 -14.300781 6.957031 -13.84375 6.53125 C -12.800781 5.59375 -11.675781 4.753906 -10.46875 4.015625 C -6.132812 1.242188 -1.6875 -1.304688 2.875 -3.640625 C 2.894531 -3.640625 2.90625 -3.640625 2.90625 -3.640625 C 3.382812 -3.890625 3.859375 -4.144531 4.328125 -4.40625 C 4.398438 -4.46875 4.5 -4.597656 4.625 -4.796875 C 4.757812 -5.003906 4.859375 -5.207031 4.921875 -5.40625 C 4.992188 -5.613281 4.976562 -5.757812 4.875 -5.84375 C 4.769531 -5.9375 4.519531 -5.894531 4.125 -5.71875 C 3.957031 -5.65625 3.8125 -5.585938 3.6875 -5.515625 C 3.332031 -5.335938 2.976562 -5.179688 2.625 -5.046875 C 0.53125 -4.546875 -0.515625 -5.351562 -0.515625 -7.46875 C -0.460938 -8.738281 -0.0820312 -9.882812 0.625 -10.90625 C 1.34375 -11.925781 2.253906 -12.722656 3.359375 -13.296875 C 4.472656 -13.878906 5.675781 -14.101562 6.96875 -13.96875 C 7.101562 -13.96875 7.238281 -13.953125 7.375 -13.921875 C 7.726562 -13.867188 8.082031 -13.84375 8.4375 -13.84375 C 8.800781 -13.84375 9.175781 -13.921875 9.5625 -14.078125 C 9.957031 -14.234375 10.253906 -14.1875 10.453125 -13.9375 C 10.660156 -13.6875 10.695312 -13.363281 10.5625 -12.96875 C 10.207031 -12.207031 9.859375 -11.4375 9.515625 -10.65625 C 9.273438 -10.175781 9.046875 -9.679688 8.828125 -9.171875 C 8.578125 -8.640625 8.335938 -8.09375 8.109375 -7.53125 C 7.785156 -6.789062 7.738281 -6.398438 7.96875 -6.359375 C 8.195312 -6.328125 8.59375 -6.457031 9.15625 -6.75 C 9.226562 -6.78125 9.304688 -6.804688 9.390625 -6.828125 C 10.421875 -7.316406 11.453125 -7.800781 12.484375 -8.28125 C 13.222656 -8.601562 13.953125 -8.9375 14.671875 -9.28125 C 15.160156 -9.5 15.660156 -9.675781 16.171875 -9.8125 Z M 3.15625 0.015625 C 3.53125 -1.054688 3.6875 -1.757812 3.625 -2.09375 C 3.570312 -2.425781 3.335938 -2.515625 2.921875 -2.359375 C 2.515625 -2.203125 1.972656 -1.910156 1.296875 -1.484375 C 0.867188 -1.210938 0.398438 -0.941406 -0.109375 -0.671875 C -3.203125 0.992188 -6.210938 2.78125 -9.140625 4.6875 C -10.429688 5.445312 -11.582031 6.363281 -12.59375 7.4375 C -13.664062 8.582031 -13.628906 9.597656 -12.484375 10.484375 C -11.816406 11.023438 -11.070312 11.398438 -10.25 11.609375 C -9.425781 11.828125 -8.519531 11.9375 -7.53125 11.9375 C -6.363281 12.019531 -5.285156 11.804688 -4.296875 11.296875 C -3.304688 10.785156 -2.394531 10.015625 -1.5625 8.984375 C -1.0625 8.316406 -0.578125 7.625 -0.109375 6.90625 C 1.234375 4.707031 2.320312 2.410156 3.15625 0.015625 Z M 1.9375 -6.46875 C 2.257812 -6.332031 2.722656 -6.445312 3.328125 -6.8125 C 3.929688 -7.175781 4.550781 -7.675781 5.1875 -8.3125 C 5.820312 -8.957031 6.320312 -9.613281 6.6875 -10.28125 C 7.0625 -10.957031 7.15625 -11.53125 6.96875 -12 C 6.925781 -12.125 6.847656 -12.242188 6.734375 -12.359375 C 6.546875 -12.585938 6.332031 -12.695312 6.09375 -12.6875 C 5.851562 -12.675781 5.597656 -12.632812 5.328125 -12.5625 C 4.429688 -12.207031 3.640625 -11.597656 2.953125 -10.734375 C 2.273438 -9.878906 1.820312 -9.03125 1.59375 -8.1875 C 1.375 -7.34375 1.488281 -6.769531 1.9375 -6.46875 Z M 1.9375 -6.46875 "/></g></g></g><g fill="#ffffff" fill-opacity="1"><g transform="translate(305.540112, 231.000335)"><g><path d="M 7.28125 -7.71875 C 6.625 -6.945312 5.847656 -6.234375 4.953125 -5.578125 C 4.066406 -4.929688 3.0625 -4.492188 1.9375 -4.265625 C 0.8125 -4.046875 -0.0546875 -4.128906 -0.671875 -4.515625 C -1.296875 -4.910156 -1.421875 -5.78125 -1.046875 -7.125 C -0.554688 -8.507812 0.113281 -9.832031 0.96875 -11.09375 C 1.164062 -11.363281 1.445312 -11.550781 1.8125 -11.65625 C 2.082031 -11.71875 2.316406 -11.671875 2.515625 -11.515625 C 2.710938 -11.367188 2.789062 -11.179688 2.75 -10.953125 C 2.5625 -10.515625 2.359375 -10.070312 2.140625 -9.625 C 1.921875 -9.1875 1.773438 -8.898438 1.703125 -8.765625 C 1.273438 -7.984375 0.976562 -7.164062 0.8125 -6.3125 C 0.8125 -5.820312 1.460938 -5.789062 2.765625 -6.21875 C 4.066406 -6.644531 5.332031 -7.429688 6.5625 -8.578125 C 7.800781 -9.722656 8.394531 -10.054688 8.34375 -9.578125 C 8.289062 -9.109375 7.9375 -8.488281 7.28125 -7.71875 Z M 4.078125 -13.84375 C 4.015625 -13.789062 3.890625 -13.726562 3.703125 -13.65625 C 3.515625 -13.59375 3.3125 -13.546875 3.09375 -13.515625 C 2.882812 -13.492188 2.71875 -13.53125 2.59375 -13.625 C 2.476562 -13.71875 2.472656 -13.910156 2.578125 -14.203125 C 2.773438 -14.722656 2.976562 -15.171875 3.1875 -15.546875 C 3.40625 -15.929688 3.6875 -16.359375 4.03125 -16.828125 C 4.25 -17.035156 4.484375 -17.144531 4.734375 -17.15625 C 4.992188 -17.175781 5.207031 -17.109375 5.375 -16.953125 C 5.550781 -16.804688 5.601562 -16.597656 5.53125 -16.328125 C 5.257812 -15.367188 4.773438 -14.539062 4.078125 -13.84375 Z M 4.078125 -13.84375 "/></g></g></g><g fill="#ffffff" fill-opacity="1"><g transform="translate(312.678993, 231.000335)"><g><path d="M 8.859375 -8.734375 C 9.265625 -9.140625 9.597656 -9.363281 9.859375 -9.40625 C 10.128906 -9.457031 10.304688 -9.414062 10.390625 -9.28125 C 10.472656 -9.144531 10.421875 -8.960938 10.234375 -8.734375 C 9.160156 -7.441406 7.957031 -6.320312 6.625 -5.375 C 5.289062 -4.4375 3.921875 -3.894531 2.515625 -3.75 C 1.109375 -3.601562 0.257812 -4.375 -0.03125 -6.0625 C -0.25 -7.726562 0.757812 -11.128906 3 -16.265625 C 5.25 -21.410156 7.023438 -25.625 8.328125 -28.90625 C 8.441406 -29.207031 8.609375 -29.46875 8.828125 -29.6875 C 9.117188 -29.976562 9.46875 -30.046875 9.875 -29.890625 C 10.007812 -29.828125 10.140625 -29.726562 10.265625 -29.59375 C 10.398438 -29.457031 10.445312 -29.21875 10.40625 -28.875 C 4.625 -15.175781 1.820312 -7.726562 2 -6.53125 C 2.1875 -5.34375 2.960938 -5.050781 4.328125 -5.65625 C 5.691406 -6.257812 6.742188 -6.875 7.484375 -7.5 C 8.222656 -8.125 8.679688 -8.535156 8.859375 -8.734375 Z M 8.859375 -8.734375 "/></g></g></g><g fill="#ffffff" fill-opacity="1"><g transform="translate(321.813106, 231.000335)"><g><path d="M 7.28125 -7.71875 C 6.625 -6.945312 5.847656 -6.234375 4.953125 -5.578125 C 4.066406 -4.929688 3.0625 -4.492188 1.9375 -4.265625 C 0.8125 -4.046875 -0.0546875 -4.128906 -0.671875 -4.515625 C -1.296875 -4.910156 -1.421875 -5.78125 -1.046875 -7.125 C -0.554688 -8.507812 0.113281 -9.832031 0.96875 -11.09375 C 1.164062 -11.363281 1.445312 -11.550781 1.8125 -11.65625 C 2.082031 -11.71875 2.316406 -11.671875 2.515625 -11.515625 C 2.710938 -11.367188 2.789062 -11.179688 2.75 -10.953125 C 2.5625 -10.515625 2.359375 -10.070312 2.140625 -9.625 C 1.921875 -9.1875 1.773438 -8.898438 1.703125 -8.765625 C 1.273438 -7.984375 0.976562 -7.164062 0.8125 -6.3125 C 0.8125 -5.820312 1.460938 -5.789062 2.765625 -6.21875 C 4.066406 -6.644531 5.332031 -7.429688 6.5625 -8.578125 C 7.800781 -9.722656 8.394531 -10.054688 8.34375 -9.578125 C 8.289062 -9.109375 7.9375 -8.488281 7.28125 -7.71875 Z M 4.078125 -13.84375 C 4.015625 -13.789062 3.890625 -13.726562 3.703125 -13.65625 C 3.515625 -13.59375 3.3125 -13.546875 3.09375 -13.515625 C 2.882812 -13.492188 2.71875 -13.53125 2.59375 -13.625 C 2.476562 -13.71875 2.472656 -13.910156 2.578125 -14.203125 C 2.773438 -14.722656 2.976562 -15.171875 3.1875 -15.546875 C 3.40625 -15.929688 3.6875 -16.359375 4.03125 -16.828125 C 4.25 -17.035156 4.484375 -17.144531 4.734375 -17.15625 C 4.992188 -17.175781 5.207031 -17.109375 5.375 -16.953125 C 5.550781 -16.804688 5.601562 -16.597656 5.53125 -16.328125 C 5.257812 -15.367188 4.773438 -14.539062 4.078125 -13.84375 Z M 4.078125 -13.84375 "/></g></g></g><path stroke-linecap="butt" transform="matrix(0, -0.75, 0.75, 0, 89.895203, 239.238265)" fill="none" stroke-linejoin="miter" d="M -0.0000215466 0.999105 L 135.984362 0.999105 " stroke="#ffffff" stroke-width="2" stroke-opacity="1" stroke-miterlimit="4"/><path stroke-linecap="butt" transform="matrix(-0.75, 0, 0, -0.75, 160.008496, 182.906122)" fill="none" stroke-linejoin="miter" d="M 0.00091079 0.999829 L 109.12071 0.999829 " stroke="#ffffff" stroke-width="2" stroke-opacity="1" stroke-miterlimit="4"/><g fill="#ffffff" fill-opacity="1"><g transform="translate(100.463926, 199.818268)"><g><path d="M 3.03125 -2.75 C 3.570312 -2.75 4.0625 -2.832031 4.5 -3 C 4.945312 -3.175781 5.300781 -3.441406 5.5625 -3.796875 C 5.832031 -4.160156 5.96875 -4.609375 5.96875 -5.140625 C 5.96875 -5.941406 5.707031 -6.53125 5.1875 -6.90625 C 4.664062 -7.289062 3.984375 -7.484375 3.140625 -7.484375 L 0.984375 -7.484375 L 0.984375 0 L 2.046875 0 L 2.046875 -2.75 Z M 3.125 -6.59375 C 3.695312 -6.59375 4.128906 -6.476562 4.421875 -6.25 C 4.710938 -6.03125 4.859375 -5.648438 4.859375 -5.109375 C 4.835938 -4.609375 4.664062 -4.234375 4.34375 -3.984375 C 4.03125 -3.742188 3.601562 -3.625 3.0625 -3.625 L 2.046875 -3.625 L 2.046875 -6.59375 Z M 3.125 -6.59375 "/></g></g></g><g fill="#ffffff" fill-opacity="1"><g transform="translate(108.049484, 199.818268)"><g><path d="M 0.578125 -0.40625 C 0.722656 -0.269531 1.023438 -0.144531 1.484375 -0.03125 C 1.953125 0.0820312 2.347656 0.140625 2.671875 0.140625 C 3.234375 0.140625 3.71875 0.0546875 4.125 -0.109375 C 4.53125 -0.273438 4.835938 -0.507812 5.046875 -0.8125 C 5.265625 -1.125 5.375 -1.476562 5.375 -1.875 C 5.375 -2.382812 5.21875 -2.800781 4.90625 -3.125 C 4.59375 -3.445312 4.101562 -3.757812 3.4375 -4.0625 C 2.9375 -4.289062 2.554688 -4.476562 2.296875 -4.625 C 2.035156 -4.769531 1.835938 -4.929688 1.703125 -5.109375 C 1.566406 -5.285156 1.5 -5.492188 1.5 -5.734375 C 1.5 -6.054688 1.632812 -6.300781 1.90625 -6.46875 C 2.175781 -6.632812 2.53125 -6.71875 2.96875 -6.71875 C 3.28125 -6.71875 3.550781 -6.679688 3.78125 -6.609375 C 4.019531 -6.546875 4.265625 -6.453125 4.515625 -6.328125 L 4.875 -7.15625 C 4.59375 -7.300781 4.273438 -7.421875 3.921875 -7.515625 C 3.578125 -7.609375 3.234375 -7.65625 2.890625 -7.65625 C 2.390625 -7.65625 1.953125 -7.570312 1.578125 -7.40625 C 1.210938 -7.238281 0.929688 -7.003906 0.734375 -6.703125 C 0.535156 -6.410156 0.4375 -6.082031 0.4375 -5.71875 C 0.4375 -5.351562 0.503906 -5.039062 0.640625 -4.78125 C 0.785156 -4.519531 0.992188 -4.289062 1.265625 -4.09375 C 1.546875 -3.90625 1.914062 -3.707031 2.375 -3.5 C 2.84375 -3.289062 3.207031 -3.109375 3.46875 -2.953125 C 3.738281 -2.804688 3.941406 -2.644531 4.078125 -2.46875 C 4.222656 -2.289062 4.296875 -2.082031 4.296875 -1.84375 C 4.296875 -1.519531 4.148438 -1.257812 3.859375 -1.0625 C 3.578125 -0.863281 3.175781 -0.765625 2.65625 -0.765625 C 2.351562 -0.765625 2.03125 -0.8125 1.6875 -0.90625 C 1.34375 -1.007812 1.050781 -1.125 0.8125 -1.25 Z M 0.578125 -0.40625 "/></g></g></g><g fill="#ffffff" fill-opacity="1"><g transform="translate(115.041461, 199.818268)"><g><path d="M 0.984375 -7.484375 L 0.984375 0 L 2.046875 0 L 2.046875 -7.484375 Z M 0.984375 -7.484375 "/></g></g></g><g fill="#ffffff" fill-opacity="1"><g transform="translate(119.373315, 199.818268)"><g><path d="M 5.890625 -7.1875 C 5.648438 -7.332031 5.335938 -7.441406 4.953125 -7.515625 C 4.578125 -7.597656 4.257812 -7.640625 4 -7.640625 C 3.28125 -7.640625 2.648438 -7.46875 2.109375 -7.125 C 1.578125 -6.78125 1.164062 -6.304688 0.875 -5.703125 C 0.582031 -5.109375 0.4375 -4.441406 0.4375 -3.703125 C 0.4375 -2.984375 0.570312 -2.332031 0.84375 -1.75 C 1.113281 -1.164062 1.507812 -0.703125 2.03125 -0.359375 C 2.550781 -0.015625 3.179688 0.15625 3.921875 0.15625 C 4.242188 0.15625 4.597656 0.113281 4.984375 0.03125 C 5.367188 -0.0507812 5.679688 -0.15625 5.921875 -0.28125 L 5.515625 -1.078125 C 5.046875 -0.859375 4.503906 -0.75 3.890625 -0.75 C 3.410156 -0.75 2.988281 -0.878906 2.625 -1.140625 C 2.269531 -1.410156 2 -1.769531 1.8125 -2.21875 C 1.632812 -2.664062 1.546875 -3.160156 1.546875 -3.703125 C 1.546875 -4.296875 1.648438 -4.820312 1.859375 -5.28125 C 2.066406 -5.738281 2.351562 -6.09375 2.71875 -6.34375 C 3.09375 -6.601562 3.507812 -6.734375 3.96875 -6.734375 C 4.289062 -6.734375 4.554688 -6.707031 4.765625 -6.65625 C 4.972656 -6.613281 5.238281 -6.535156 5.5625 -6.421875 Z M 5.890625 -7.1875 "/></g></g></g><g fill="#ffffff" fill-opacity="1"><g transform="translate(126.815971, 199.818268)"><g><path d="M 4.015625 -7.65625 C 3.328125 -7.644531 2.710938 -7.460938 2.171875 -7.109375 C 1.628906 -6.765625 1.203125 -6.296875 0.890625 -5.703125 C 0.585938 -5.109375 0.4375 -4.441406 0.4375 -3.703125 C 0.4375 -2.960938 0.585938 -2.300781 0.890625 -1.71875 C 1.203125 -1.132812 1.625 -0.675781 2.15625 -0.34375 C 2.695312 -0.0078125 3.304688 0.15625 3.984375 0.15625 C 4.671875 0.144531 5.285156 -0.03125 5.828125 -0.375 C 6.378906 -0.71875 6.804688 -1.1875 7.109375 -1.78125 C 7.421875 -2.375 7.578125 -3.039062 7.578125 -3.78125 C 7.578125 -4.519531 7.425781 -5.179688 7.125 -5.765625 C 6.820312 -6.359375 6.394531 -6.820312 5.84375 -7.15625 C 5.300781 -7.488281 4.691406 -7.65625 4.015625 -7.65625 Z M 1.546875 -3.71875 C 1.546875 -4.300781 1.648438 -4.820312 1.859375 -5.28125 C 2.066406 -5.738281 2.363281 -6.097656 2.75 -6.359375 C 3.132812 -6.617188 3.5625 -6.75 4.03125 -6.75 C 4.5 -6.75 4.914062 -6.617188 5.28125 -6.359375 C 5.644531 -6.109375 5.929688 -5.753906 6.140625 -5.296875 C 6.347656 -4.847656 6.453125 -4.34375 6.453125 -3.78125 C 6.453125 -3.207031 6.34375 -2.6875 6.125 -2.21875 C 5.914062 -1.757812 5.625 -1.398438 5.25 -1.140625 C 4.875 -0.878906 4.445312 -0.75 3.96875 -0.75 C 3.507812 -0.75 3.09375 -0.875 2.71875 -1.125 C 2.351562 -1.375 2.066406 -1.726562 1.859375 -2.1875 C 1.648438 -2.644531 1.546875 -3.15625 1.546875 -3.71875 Z M 3.875 -9.859375 L 3.28125 -8.3125 L 4.015625 -8.125 L 5 -9.859375 Z M 3.875 -9.859375 "/></g></g></g><g fill="#ffffff" fill-opacity="1"><g transform="translate(136.12731, 199.818268)"><g><path d="M 2.046875 -7.484375 L 0.984375 -7.484375 L 0.984375 0 L 5.5625 0 L 5.421875 -0.828125 L 2.046875 -0.828125 Z M 2.046875 -7.484375 "/></g></g></g><g fill="#ffffff" fill-opacity="1"><g transform="translate(143.086316, 199.818268)"><g><path d="M 4.015625 -7.65625 C 3.328125 -7.644531 2.710938 -7.460938 2.171875 -7.109375 C 1.628906 -6.765625 1.203125 -6.296875 0.890625 -5.703125 C 0.585938 -5.109375 0.4375 -4.441406 0.4375 -3.703125 C 0.4375 -2.960938 0.585938 -2.300781 0.890625 -1.71875 C 1.203125 -1.132812 1.625 -0.675781 2.15625 -0.34375 C 2.695312 -0.0078125 3.304688 0.15625 3.984375 0.15625 C 4.671875 0.144531 5.285156 -0.03125 5.828125 -0.375 C 6.378906 -0.71875 6.804688 -1.1875 7.109375 -1.78125 C 7.421875 -2.375 7.578125 -3.039062 7.578125 -3.78125 C 7.578125 -4.519531 7.425781 -5.179688 7.125 -5.765625 C 6.820312 -6.359375 6.394531 -6.820312 5.84375 -7.15625 C 5.300781 -7.488281 4.691406 -7.65625 4.015625 -7.65625 Z M 1.546875 -3.71875 C 1.546875 -4.300781 1.648438 -4.820312 1.859375 -5.28125 C 2.066406 -5.738281 2.363281 -6.097656 2.75 -6.359375 C 3.132812 -6.617188 3.5625 -6.75 4.03125 -6.75 C 4.5 -6.75 4.914062 -6.617188 5.28125 -6.359375 C 5.644531 -6.109375 5.929688 -5.753906 6.140625 -5.296875 C 6.347656 -4.847656 6.453125 -4.34375 6.453125 -3.78125 C 6.453125 -3.207031 6.34375 -2.6875 6.125 -2.21875 C 5.914062 -1.757812 5.625 -1.398438 5.25 -1.140625 C 4.875 -0.878906 4.445312 -0.75 3.96875 -0.75 C 3.507812 -0.75 3.09375 -0.875 2.71875 -1.125 C 2.351562 -1.375 2.066406 -1.726562 1.859375 -2.1875 C 1.648438 -2.644531 1.546875 -3.15625 1.546875 -3.71875 Z M 1.546875 -3.71875 "/></g></g></g><g fill="#ffffff" fill-opacity="1"><g transform="translate(152.397657, 199.818268)"><g><path d="M 5.375 -0.9375 C 4.976562 -0.8125 4.570312 -0.75 4.15625 -0.75 C 3.65625 -0.75 3.207031 -0.867188 2.8125 -1.109375 C 2.414062 -1.347656 2.101562 -1.691406 1.875 -2.140625 C 1.65625 -2.585938 1.546875 -3.109375 1.546875 -3.703125 C 1.546875 -4.335938 1.671875 -4.882812 1.921875 -5.34375 C 2.179688 -5.800781 2.519531 -6.144531 2.9375 -6.375 C 3.363281 -6.613281 3.828125 -6.734375 4.328125 -6.734375 C 4.648438 -6.734375 4.910156 -6.707031 5.109375 -6.65625 C 5.304688 -6.613281 5.570312 -6.535156 5.90625 -6.421875 L 6.234375 -7.1875 C 5.992188 -7.332031 5.679688 -7.441406 5.296875 -7.515625 C 4.910156 -7.597656 4.578125 -7.640625 4.296875 -7.640625 C 3.578125 -7.640625 2.921875 -7.472656 2.328125 -7.140625 C 1.742188 -6.804688 1.28125 -6.335938 0.9375 -5.734375 C 0.601562 -5.140625 0.4375 -4.460938 0.4375 -3.703125 C 0.4375 -2.972656 0.585938 -2.316406 0.890625 -1.734375 C 1.203125 -1.148438 1.640625 -0.6875 2.203125 -0.34375 C 2.773438 -0.0078125 3.4375 0.15625 4.1875 0.15625 C 4.570312 0.15625 4.960938 0.101562 5.359375 0 C 5.753906 -0.09375 6.082031 -0.21875 6.34375 -0.375 L 6.359375 -3.921875 L 3.84375 -3.921875 L 3.75 -3.125 L 5.375 -3.125 Z M 5.375 -0.9375 "/></g></g></g><g fill="#ffffff" fill-opacity="1"><g transform="translate(160.598779, 199.818268)"><g><path d="M 1.140625 0 L 1.890625 -2 L 4.9375 -2 L 5.71875 0.09375 L 6.765625 -0.0625 L 3.890625 -7.484375 L 2.921875 -7.484375 L 0.109375 0 Z M 3.390625 -6.0625 L 4.625 -2.84375 L 2.1875 -2.84375 Z M 3.390625 -6.0625 "/></g></g></g><g fill="#ffffff" fill-opacity="1"><g transform="translate(100.463926, 230.06736)"><g><path d="M 4.28125 -5.21875 C 4.113281 -5.332031 3.890625 -5.414062 3.609375 -5.46875 C 3.328125 -5.519531 3.09375 -5.546875 2.90625 -5.546875 C 2.382812 -5.546875 1.925781 -5.421875 1.53125 -5.171875 C 1.144531 -4.929688 0.84375 -4.59375 0.625 -4.15625 C 0.414062 -3.71875 0.3125 -3.226562 0.3125 -2.6875 C 0.3125 -2.164062 0.410156 -1.691406 0.609375 -1.265625 C 0.804688 -0.835938 1.09375 -0.5 1.46875 -0.25 C 1.851562 -0.0078125 2.316406 0.109375 2.859375 0.109375 C 3.085938 0.109375 3.34375 0.078125 3.625 0.015625 C 3.90625 -0.046875 4.132812 -0.117188 4.3125 -0.203125 L 4.015625 -0.78125 C 3.671875 -0.625 3.273438 -0.546875 2.828125 -0.546875 C 2.472656 -0.546875 2.164062 -0.640625 1.90625 -0.828125 C 1.65625 -1.023438 1.460938 -1.285156 1.328125 -1.609375 C 1.191406 -1.941406 1.125 -2.304688 1.125 -2.703125 C 1.125 -3.128906 1.195312 -3.507812 1.34375 -3.84375 C 1.5 -4.175781 1.710938 -4.429688 1.984375 -4.609375 C 2.253906 -4.796875 2.554688 -4.890625 2.890625 -4.890625 C 3.117188 -4.890625 3.304688 -4.875 3.453125 -4.84375 C 3.609375 -4.8125 3.804688 -4.753906 4.046875 -4.671875 Z M 4.28125 -5.21875 "/></g></g></g><g fill="#ffffff" fill-opacity="1"><g transform="translate(105.880029, 230.06736)"><g><path d="M 1.484375 0 L 1.484375 -2.171875 L 2.203125 -2.171875 C 2.441406 -2.171875 2.609375 -2.179688 2.703125 -2.203125 L 3.921875 0 L 4.75 0 L 3.390625 -2.40625 C 3.671875 -2.519531 3.894531 -2.695312 4.0625 -2.9375 C 4.238281 -3.1875 4.332031 -3.484375 4.34375 -3.828125 C 4.34375 -4.367188 4.148438 -4.769531 3.765625 -5.03125 C 3.390625 -5.300781 2.894531 -5.4375 2.28125 -5.4375 L 0.71875 -5.4375 L 0.71875 0 Z M 2.265625 -4.796875 C 2.679688 -4.796875 2.992188 -4.71875 3.203125 -4.5625 C 3.421875 -4.414062 3.53125 -4.160156 3.53125 -3.796875 C 3.53125 -3.441406 3.410156 -3.1875 3.171875 -3.03125 C 2.929688 -2.875 2.617188 -2.796875 2.234375 -2.796875 L 1.484375 -2.796875 L 1.484375 -4.796875 Z M 2.265625 -4.796875 "/></g></g></g><g fill="#ffffff" fill-opacity="1"><g transform="translate(111.656133, 230.06736)"><g><path d="M 2.203125 -2 C 2.597656 -2 2.957031 -2.0625 3.28125 -2.1875 C 3.601562 -2.3125 3.859375 -2.503906 4.046875 -2.765625 C 4.242188 -3.023438 4.34375 -3.351562 4.34375 -3.75 C 4.34375 -4.320312 4.148438 -4.742188 3.765625 -5.015625 C 3.390625 -5.296875 2.894531 -5.4375 2.28125 -5.4375 L 0.71875 -5.4375 L 0.71875 0 L 1.484375 0 L 1.484375 -2 Z M 2.265625 -4.796875 C 2.679688 -4.796875 2.992188 -4.710938 3.203125 -4.546875 C 3.421875 -4.378906 3.53125 -4.101562 3.53125 -3.71875 C 3.519531 -3.351562 3.394531 -3.082031 3.15625 -2.90625 C 2.925781 -2.726562 2.617188 -2.640625 2.234375 -2.640625 L 1.484375 -2.640625 L 1.484375 -4.796875 Z M 2.265625 -4.796875 "/></g></g></g><g fill="#ffffff" fill-opacity="1"><g transform="translate(117.176231, 230.06736)"><g/></g></g><g fill="#ffffff" fill-opacity="1"><g transform="translate(119.960282, 230.06736)"><g><path d="M 0.234375 -2.28125 C 0.234375 -1.832031 0.328125 -1.425781 0.515625 -1.0625 C 0.703125 -0.695312 0.957031 -0.410156 1.28125 -0.203125 C 1.613281 0.00390625 1.984375 0.109375 2.390625 0.109375 C 2.804688 0.109375 3.175781 0.00390625 3.5 -0.203125 C 3.820312 -0.410156 4.070312 -0.695312 4.25 -1.0625 C 4.4375 -1.425781 4.53125 -1.835938 4.53125 -2.296875 C 4.53125 -2.742188 4.4375 -3.144531 4.25 -3.5 C 4.070312 -3.851562 3.820312 -4.128906 3.5 -4.328125 C 3.175781 -4.523438 2.804688 -4.625 2.390625 -4.625 C 1.984375 -4.625 1.613281 -4.523438 1.28125 -4.328125 C 0.957031 -4.128906 0.703125 -3.847656 0.515625 -3.484375 C 0.328125 -3.128906 0.234375 -2.726562 0.234375 -2.28125 Z M 0.96875 -2.3125 C 0.96875 -2.632812 1.03125 -2.921875 1.15625 -3.171875 C 1.28125 -3.421875 1.445312 -3.613281 1.65625 -3.75 C 1.875 -3.894531 2.117188 -3.96875 2.390625 -3.96875 C 2.660156 -3.96875 2.90625 -3.894531 3.125 -3.75 C 3.34375 -3.601562 3.507812 -3.398438 3.625 -3.140625 C 3.75 -2.890625 3.8125 -2.597656 3.8125 -2.265625 C 3.8125 -1.941406 3.75 -1.644531 3.625 -1.375 C 3.507812 -1.113281 3.34375 -0.910156 3.125 -0.765625 C 2.90625 -0.617188 2.660156 -0.546875 2.390625 -0.546875 C 2.117188 -0.546875 1.875 -0.625 1.65625 -0.78125 C 1.445312 -0.9375 1.28125 -1.144531 1.15625 -1.40625 C 1.03125 -1.675781 0.96875 -1.976562 0.96875 -2.3125 Z M 0.96875 -2.3125 "/></g></g></g><g fill="#ffffff" fill-opacity="1"><g transform="translate(125.680385, 230.06736)"><g><path d="M 2.171875 -3.09375 C 2.515625 -3.09375 2.816406 -3.023438 3.078125 -2.890625 C 3.347656 -2.765625 3.554688 -2.582031 3.703125 -2.34375 C 3.847656 -2.101562 3.921875 -1.828125 3.921875 -1.515625 C 3.921875 -1.210938 3.847656 -0.9375 3.703125 -0.6875 C 3.554688 -0.4375 3.347656 -0.238281 3.078125 -0.09375 C 2.816406 0.0390625 2.519531 0.109375 2.1875 0.109375 C 1.8125 0.109375 1.476562 0.0234375 1.1875 -0.140625 C 0.894531 -0.304688 0.660156 -0.546875 0.484375 -0.859375 C 0.316406 -1.179688 0.234375 -1.566406 0.234375 -2.015625 C 0.234375 -2.597656 0.382812 -3.109375 0.6875 -3.546875 C 1 -3.992188 1.382812 -4.34375 1.84375 -4.59375 C 2.3125 -4.851562 2.773438 -5.015625 3.234375 -5.078125 L 3.390625 -4.46875 C 2.859375 -4.363281 2.375 -4.171875 1.9375 -3.890625 C 1.5 -3.609375 1.207031 -3.222656 1.0625 -2.734375 C 1.226562 -2.847656 1.398438 -2.9375 1.578125 -3 C 1.753906 -3.0625 1.953125 -3.09375 2.171875 -3.09375 Z M 2.15625 -0.53125 C 2.457031 -0.53125 2.707031 -0.617188 2.90625 -0.796875 C 3.101562 -0.984375 3.203125 -1.210938 3.203125 -1.484375 C 3.203125 -1.785156 3.101562 -2.023438 2.90625 -2.203125 C 2.71875 -2.390625 2.460938 -2.484375 2.140625 -2.484375 C 1.765625 -2.484375 1.375 -2.304688 0.96875 -1.953125 C 1 -1.503906 1.125 -1.15625 1.34375 -0.90625 C 1.5625 -0.65625 1.832031 -0.53125 2.15625 -0.53125 Z M 2.15625 -0.53125 "/></g></g></g><g fill="#ffffff" fill-opacity="1"><g transform="translate(130.784483, 230.06736)"><g><path d="M 0.84375 0.03125 L 3.265625 -5.640625 L 2.5 -5.6875 L 0.078125 0 Z M 0.84375 0.03125 "/></g></g></g><g fill="#ffffff" fill-opacity="1"><g transform="translate(135.080557, 230.06736)"><g><path d="M 1.53125 -4.53125 L 0.078125 -3.828125 L 0.4375 -3.21875 L 1.265625 -3.65625 L 1.265625 0 L 2.046875 0 L 2.046875 -4.53125 Z M 1.53125 -4.53125 "/></g></g></g><g fill="#ffffff" fill-opacity="1"><g transform="translate(138.624618, 230.06736)"><g><path d="M 1.75 -4.625 C 1.195312 -4.625 0.65625 -4.453125 0.125 -4.109375 L 0.484375 -3.59375 C 0.648438 -3.707031 0.835938 -3.804688 1.046875 -3.890625 C 1.265625 -3.972656 1.488281 -4.015625 1.71875 -4.015625 C 2 -4.015625 2.222656 -3.941406 2.390625 -3.796875 C 2.554688 -3.648438 2.640625 -3.472656 2.640625 -3.265625 C 2.640625 -3.015625 2.523438 -2.8125 2.296875 -2.65625 C 2.078125 -2.507812 1.78125 -2.4375 1.40625 -2.4375 L 1 -2.4375 L 1.109375 -1.859375 L 1.359375 -1.859375 C 1.828125 -1.859375 2.175781 -1.769531 2.40625 -1.59375 C 2.632812 -1.425781 2.75 -1.191406 2.75 -0.890625 C 2.75 -0.628906 2.640625 -0.414062 2.421875 -0.25 C 2.203125 -0.09375 1.941406 -0.015625 1.640625 -0.015625 C 1.398438 -0.015625 1.179688 -0.0390625 0.984375 -0.09375 C 0.796875 -0.15625 0.597656 -0.25 0.390625 -0.375 L 0 0.15625 C 0.25 0.28125 0.515625 0.382812 0.796875 0.46875 C 1.078125 0.5625 1.351562 0.609375 1.625 0.609375 C 2 0.609375 2.328125 0.539062 2.609375 0.40625 C 2.890625 0.28125 3.101562 0.101562 3.25 -0.125 C 3.40625 -0.363281 3.484375 -0.625 3.484375 -0.90625 C 3.484375 -1.226562 3.394531 -1.503906 3.21875 -1.734375 C 3.039062 -1.960938 2.832031 -2.101562 2.59375 -2.15625 C 2.8125 -2.238281 3 -2.382812 3.15625 -2.59375 C 3.3125 -2.800781 3.390625 -3.03125 3.390625 -3.28125 C 3.390625 -3.519531 3.328125 -3.742188 3.203125 -3.953125 C 3.078125 -4.160156 2.890625 -4.320312 2.640625 -4.4375 C 2.390625 -4.5625 2.09375 -4.625 1.75 -4.625 Z M 1.75 -4.625 "/></g></g></g><g fill="#ffffff" fill-opacity="1"><g transform="translate(143.328707, 230.06736)"><g><path d="M 1.96875 -4.625 C 2.34375 -4.625 2.675781 -4.539062 2.96875 -4.375 C 3.269531 -4.21875 3.503906 -3.976562 3.671875 -3.65625 C 3.835938 -3.34375 3.921875 -2.960938 3.921875 -2.515625 C 3.921875 -1.921875 3.765625 -1.398438 3.453125 -0.953125 C 3.148438 -0.515625 2.765625 -0.171875 2.296875 0.078125 C 1.835938 0.328125 1.378906 0.484375 0.921875 0.546875 L 0.78125 -0.0625 C 1.300781 -0.164062 1.78125 -0.359375 2.21875 -0.640625 C 2.65625 -0.921875 2.945312 -1.304688 3.09375 -1.796875 C 2.925781 -1.679688 2.753906 -1.59375 2.578125 -1.53125 C 2.398438 -1.46875 2.203125 -1.4375 1.984375 -1.4375 C 1.648438 -1.4375 1.347656 -1.5 1.078125 -1.625 C 0.816406 -1.757812 0.609375 -1.945312 0.453125 -2.1875 C 0.304688 -2.425781 0.234375 -2.703125 0.234375 -3.015625 C 0.234375 -3.316406 0.304688 -3.59375 0.453125 -3.84375 C 0.609375 -4.09375 0.816406 -4.285156 1.078125 -4.421875 C 1.335938 -4.554688 1.632812 -4.625 1.96875 -4.625 Z M 0.953125 -3.046875 C 0.953125 -2.742188 1.046875 -2.5 1.234375 -2.3125 C 1.429688 -2.132812 1.691406 -2.046875 2.015625 -2.046875 C 2.390625 -2.046875 2.78125 -2.21875 3.1875 -2.5625 C 3.164062 -3.019531 3.039062 -3.367188 2.8125 -3.609375 C 2.59375 -3.859375 2.320312 -3.984375 2 -3.984375 C 1.695312 -3.984375 1.445312 -3.894531 1.25 -3.71875 C 1.050781 -3.539062 0.953125 -3.316406 0.953125 -3.046875 Z M 0.953125 -3.046875 "/></g></g></g><g fill="#ffffff" fill-opacity="1"><g transform="translate(148.432804, 230.06736)"><g><path d="M 3.28125 -4.5625 L 2.734375 -4.5625 L 0.078125 -1.15625 L 0.1875 -0.53125 L 2.515625 -0.53125 L 2.515625 0.546875 L 3.28125 0.546875 L 3.28125 -0.53125 L 4.046875 -0.53125 L 4.125 -1.15625 L 3.28125 -1.15625 Z M 0.90625 -1.15625 L 2.515625 -3.265625 L 2.515625 -1.15625 Z M 0.90625 -1.15625 "/></g></g></g><g fill="#ffffff" fill-opacity="1"><g transform="translate(153.664905, 230.06736)"><g><path d="M 1.53125 -4.53125 L 0.078125 -3.828125 L 0.4375 -3.21875 L 1.265625 -3.65625 L 1.265625 0 L 2.046875 0 L 2.046875 -4.53125 Z M 1.53125 -4.53125 "/></g></g></g><g fill="#ffffff" fill-opacity="1"><g transform="translate(157.208965, 230.06736)"><g><path d="M 1.25 -1.75 C 1.332031 -1.84375 1.445312 -1.925781 1.59375 -2 C 1.738281 -2.082031 1.898438 -2.125 2.078125 -2.125 C 2.359375 -2.125 2.585938 -2.03125 2.765625 -1.84375 C 2.941406 -1.664062 3.03125 -1.421875 3.03125 -1.109375 C 3.03125 -0.773438 2.925781 -0.507812 2.71875 -0.3125 C 2.507812 -0.125 2.234375 -0.03125 1.890625 -0.03125 C 1.628906 -0.03125 1.40625 -0.0546875 1.21875 -0.109375 C 1.03125 -0.171875 0.832031 -0.265625 0.625 -0.390625 L 0.234375 0.15625 C 0.472656 0.28125 0.734375 0.382812 1.015625 0.46875 C 1.304688 0.5625 1.585938 0.609375 1.859375 0.609375 C 2.253906 0.609375 2.59375 0.53125 2.875 0.375 C 3.164062 0.226562 3.382812 0.03125 3.53125 -0.21875 C 3.6875 -0.476562 3.765625 -0.773438 3.765625 -1.109375 C 3.765625 -1.578125 3.617188 -1.96875 3.328125 -2.28125 C 3.035156 -2.59375 2.609375 -2.75 2.046875 -2.75 C 1.773438 -2.75 1.519531 -2.675781 1.28125 -2.53125 L 1.359375 -3.890625 L 3.390625 -3.890625 L 3.46875 -4.53125 L 0.671875 -4.53125 L 0.546875 -1.75 Z M 1.25 -1.75 "/></g></g></g></svg>